<svg width="16" height="12" viewBox="0 0 16 12" fill="none" xmlns="http://www.w3.org/2000/svg">
<path fill-rule="evenodd" clip-rule="evenodd" d="M8.33021 2.60838C10.5461 2.60848 12.6773 3.45992 14.2832 4.98672C14.4041 5.10459 14.5974 5.1031 14.7165 4.98338L15.8725 3.81672C15.9329 3.75599 15.9665 3.67374 15.966 3.58816C15.9655 3.50258 15.9309 3.42073 15.8699 3.36072C11.6548 -0.678832 5.00497 -0.678832 0.789876 3.36072C0.728817 3.42068 0.694174 3.50251 0.69361 3.58809C0.693047 3.67367 0.726612 3.75595 0.786876 3.81672L1.94321 4.98338C2.06224 5.10328 2.25568 5.10477 2.37654 4.98672C3.98269 3.45982 6.1141 2.60838 8.33021 2.60838ZM8.33021 6.40405C9.5477 6.40397 10.7217 6.85651 11.6242 7.67372C11.7463 7.7897 11.9386 7.78718 12.0575 7.66805L13.2122 6.50138C13.273 6.44019 13.3068 6.35717 13.3059 6.27091C13.305 6.18464 13.2696 6.10233 13.2075 6.04238C10.4593 3.486 6.20341 3.486 3.45521 6.04238C3.39313 6.10233 3.35771 6.18468 3.3569 6.27097C3.35608 6.35727 3.38994 6.44028 3.45088 6.50138L4.60521 7.66805C4.7242 7.78718 4.91648 7.7897 5.03854 7.67372C5.94041 6.85705 7.11352 6.40455 8.33021 6.40405ZM10.6431 8.95752C10.6448 9.04403 10.6108 9.12743 10.5491 9.18804L8.55175 11.2037C8.4932 11.2629 8.41337 11.2963 8.33008 11.2963C8.24679 11.2963 8.16696 11.2629 8.10841 11.2037L6.11075 9.18804C6.04903 9.12739 6.01509 9.04396 6.01692 8.95745C6.01875 8.87094 6.05619 8.78903 6.12041 8.73104C7.39598 7.65215 9.26417 7.65215 10.5397 8.73104C10.6039 8.78907 10.6413 8.87102 10.6431 8.95752Z" fill="black"/>
</svg>
